<?xml version="1.0" standalone="no"?>
<!DOCTYPE svg PUBLIC "-//W3C//DTD SVG 20010904//EN"
 "http://www.w3.org/TR/2001/REC-SVG-20010904/DTD/svg10.dtd">
<svg version="1.0" xmlns="http://www.w3.org/2000/svg"
 width="472.000000pt" height="472.000000pt" viewBox="0 0 472.000000 472.000000"
 preserveAspectRatio="xMidYMid meet">
<metadata>
Created by potrace 1.14, written by Peter Selinger 2001-2017
</metadata>
<g transform="translate(0.000000,472.000000) scale(0.100000,-0.100000)"
fill="#000000" stroke="none">
<path d="M5 2993 c1 -65 3 -120 4 -123 0 -3 87 -5 191 -5 162 0 190 2 191 15
0 8 1 62 2 120 l2 105 -196 3 -196 2 2 -117z"/>
<path d="M469 3103 c-7 -46 -3 -233 6 -234 5 -1 109 -3 230 -4 121 -1 225 -3
231 -4 8 -1 11 -179 12 -613 0 -337 1 -619 1 -625 1 -10 47 -13 196 -13 l195
0 -1 223 c0 122 0 404 1 627 l0 405 1221 0 c671 0 1225 3 1231 6 6 4 10 55 11
120 l0 114 -1666 3 c-917 1 -1668 -1 -1668 -5z"/>
<path d="M10 2792 c-7 -3 -10 -209 -10 -593 l0 -589 197 2 197 3 0 578 c1 318
-1 583 -4 590 -4 9 -54 12 -188 12 -100 0 -187 -1 -192 -3z"/>
<path d="M1690 2011 l0 -402 191 2 c311 3 433 41 509 159 40 62 58 138 58 246
0 137 -51 266 -122 303 -14 8 -26 18 -26 23 0 4 -9 8 -19 8 -11 0 -22 4 -25 9
-5 8 -75 28 -131 38 -11 2 -113 6 -227 9 l-208 6 0 -401z m420 309 c98 -34
127 -57 160 -134 27 -60 36 -182 20 -276 -28 -164 -123 -222 -365 -224 l-80
-1 -1 327 -1 328 116 -4 c64 -2 132 -9 151 -16z"/>
<path d="M2668 2398 c-2 -7 -4 -186 -3 -398 l0 -385 65 0 65 0 2 335 c2 440 0
406 24 345 11 -27 33 -78 50 -113 16 -34 29 -65 29 -68 0 -3 8 -24 19 -47 10
-23 42 -98 71 -167 29 -69 62 -147 74 -175 13 -27 28 -65 35 -82 13 -31 17
-33 61 -33 44 0 48 2 60 33 7 17 23 55 35 82 68 154 185 435 185 444 0 6 5 11
10 11 6 0 10 8 10 18 0 10 8 29 17 42 10 14 17 26 16 27 -1 2 3 17 9 34 6 17
13 26 17 21 3 -6 6 -168 5 -361 l0 -351 67 0 67 0 1 400 0 400 -118 0 -119 0
-52 -122 c-56 -132 -78 -182 -117 -267 -13 -29 -38 -97 -56 -150 -18 -53 -33
-98 -34 -100 -5 -7 -12 4 -16 25 -2 10 -7 26 -10 34 -3 8 -11 33 -18 55 -10
34 -67 174 -114 280 -7 17 -34 77 -58 135 l-45 105 -115 3 c-86 2 -116 -1
-119 -10z"/>
<path d="M4200 1952 c-55 -7 -86 -24 -109 -58 -33 -48 -36 -162 -5 -215 38
-66 140 -90 213 -48 37 20 68 70 56 89 -14 22 -50 10 -65 -23 -28 -60 -131
-59 -147 2 -13 49 -7 158 10 184 29 45 137 35 137 -13 0 -15 6 -20 28 -20 16
0 31 3 35 6 9 9 -20 62 -41 73 -29 15 -85 27 -112 23z"/>
<path d="M4488 1952 c-19 -2 -28 -9 -28 -21 0 -17 9 -18 90 -17 50 1 90 -1 90
-4 0 -4 -8 -15 -18 -26 -9 -10 -42 -53 -71 -94 -30 -41 -57 -77 -61 -80 -3 -3
-16 -20 -29 -38 -40 -57 -29 -62 124 -62 128 0 135 1 135 20 0 18 -8 20 -100
22 l-101 3 48 65 c26 36 50 67 53 70 3 3 26 33 53 67 47 61 58 92 35 94 -55 3
-198 3 -220 1z"/>
<path d="M3810 1740 c-4 -3 -8 -33 -8 -67 l0 -63 77 0 77 0 1 65 1 65 -36 1
c-20 0 -52 1 -70 2 -19 1 -37 0 -42 -3z"/>
</g>
</svg>
